# xmcd
#
# Track frame offsets: 
#        150
#        14838
#        31904
#        48151
#        63297
#        77811
#        94090
#        111036
#        125049
#        137466
#        153269
#        171431
#        189602
#        206415
#        222143
#        237219
#        256322
#        275535
#        291227
#        310212
#        329247
#        340894
#
# Disc length: 4799 seconds
#
# Revision: 0
# Processed by: cddbd v1.5.2PL0 Copyright (c) Steve Scherf et al.
# Submitted via: ExactAudioCopy v0.99pb4
#
DISCID=4912bd16
DTITLE=Various Artist - prevue promo 1163A-2
DYEAR=2005
DGENRE=pop
TTITLE0=Billy Idol - Cherie(radio edit)
TTITLE1=Billv Idol - Cherie(full length
TTITLE2=Feist - One Evening
TTITLE3=Matthew West - Next Thing You Know
TTITLE4=Jim Brickman Feat.  Chris Korblein - Seventb Day
TTITLE5=Shore - Waiting For The Sun
TTITLE6=American Idol 2005 Ensemble - When You Tell Me That You Love M
TTITLE6=e 
TTITLE7=Stewie - Sexy Party(lyric - Movie FAMILY GuY LIVE IN VEGAS) 
TTITLE8=Marques Houston - AIl Because Of You(no rap)
TTITLE9=Marques Houston - AIl Because Of You(,ain)
TTITLE10=Tyra Feat.  Penelope - Get No Ooh Wee(main)
TTITLE11=Tyra Feat. Penelope - Get No Ooh Wee(vocal up)
TTITLE12=John Mellencamp - Whenever We Wanted
TTITLE13=Lucinda Williams - I Lost It(live)
TTITLE14=Vendetta Red - Silhouette Serenade
TTITLE15=Joe Perry - Shakin' My Cage
TTITLE16=Z-Trip - Listen To The DJ(lyric)
TTITLE17=Bloc Party - Little Thoughts
TTITLE18=Alkaline Trio - Time To Waste
TTITLE19=22-20s - Devil In Me
TTITLE20=Dizzee Rascal - Off 2 Work
TTITLE21=Instruction - I'm Dead
EXTD=
EXTT0=
EXTT1=
EXTT2=
EXTT3=
EXTT4=
EXTT5=
EXTT6=
EXTT7=
EXTT8=
EXTT9=
EXTT10=
EXTT11=
EXTT12=
EXTT13=
EXTT14=
EXTT15=
EXTT16=
EXTT17=
EXTT18=
EXTT19=
EXTT20=
EXTT21=
PLAYORDER=
